<svg width="56" height="54" viewBox="0 0 56 54" fill="none" xmlns="http://www.w3.org/2000/svg">
    <g clip-path="url(#clip0_287_879)">
        <circle cx="28.5" cy="27.5" r="24.5" fill="#ECF1F5" />
        <path fill-rule="evenodd" clip-rule="evenodd"
            d="M33.0684 0.504808C32.749 0.626935 32.415 0.751048 32.0666 0.877146C32.0249 0.835817 31.9831 0.794363 31.9414 0.753033C32.0511 0.659825 32.1763 0.597768 32.3171 0.566864C31.8536 0.493637 31.3944 0.452308 30.9396 0.442751C31.1668 0.750675 31.2502 1.10241 31.1901 1.49771C31.4405 1.49771 31.6909 1.49771 31.9414 1.49771C31.9414 1.62182 31.9414 1.74594 31.9414 1.87005C32.2779 1.8497 32.6118 1.87042 32.9432 1.93211C33.2993 2.10338 33.6332 2.28955 33.945 2.49062C33.945 2.73884 33.945 2.98707 33.945 3.23529C34.6128 3.23529 35.2807 3.23529 35.9485 3.23529C35.9124 3.68284 35.9541 4.11724 36.0738 4.53848C36.008 4.62436 35.9245 4.68642 35.8233 4.72465C35.6564 4.55921 35.4894 4.55921 35.3224 4.72465C35.2807 4.64186 35.2389 4.55921 35.1972 4.47642C35.1238 4.50236 35.0612 4.54382 35.0094 4.60054C34.4752 4.53463 33.9534 4.41052 33.4441 4.2282C32.8528 4.30515 32.2893 4.18103 31.7536 3.85586C31.4751 3.83277 31.2038 3.91556 30.9396 4.10408C30.7727 4.10408 30.6056 4.10408 30.4387 4.10408C30.5765 3.97277 30.7435 3.86926 30.9396 3.7938C30.629 3.67465 30.316 3.57127 30.0004 3.48352C29.1657 3.42134 28.4143 3.42134 27.7464 3.48352C27.3292 3.24237 27.3499 3.09753 27.809 3.04912C26.8971 2.90826 25.9789 2.8256 25.0541 2.8009C24.9078 2.62639 24.9495 2.48168 25.1793 2.3665C24.9553 1.98721 24.8718 1.57354 24.9289 1.12537C24.5597 1.09099 24.205 1.13232 23.8645 1.24949C23.4689 1.09496 23.4897 0.950125 23.9271 0.81509C23.5906 0.748441 23.2775 0.810498 22.9879 1.00126C22.967 0.95993 22.9462 0.918476 22.9253 0.877146C23.4055 0.691473 23.4055 0.56736 22.9253 0.504808C23.6471 0.295429 24.3984 0.150713 25.1793 0.0704121C27.8295 -0.102229 30.4592 0.0426109 33.0684 0.504808Z"
            fill="#2F424B" />
        <path fill-rule="evenodd" clip-rule="evenodd"
            d="M33.0685 0.504439C35.2758 0.916494 37.4046 1.57839 39.4549 2.49025C41.9946 3.70817 44.3321 5.23885 46.4674 7.08243C49.2177 9.59596 51.3882 12.5333 52.979 15.8944C52.8829 15.9891 52.8203 16.1133 52.7912 16.2668C52.6833 16.0698 52.5997 15.8629 52.5408 15.6462C52.4991 15.8531 52.4572 16.0599 52.4155 16.2668C52.3256 16.3848 52.2213 16.4054 52.1025 16.3288C52.2216 16.2397 52.2424 16.1363 52.1651 16.0186C51.9846 15.9242 51.7968 15.8416 51.6016 15.7703C51.4347 15.398 51.2676 15.0257 51.1007 14.6533C51.0172 14.7361 50.9338 14.8188 50.8502 14.9015C50.2062 14.5878 49.6219 14.174 49.0971 13.6604C48.9849 13.9886 48.8806 14.3195 48.7841 14.6533C48.7022 14.5049 48.6395 14.5049 48.5962 14.6533C48.6379 14.7361 48.6797 14.8188 48.7214 14.9015C48.5508 15.0744 48.4465 15.2812 48.4084 15.5221C48.3651 15.2307 48.2189 15.0032 47.9701 14.8395C48.137 14.6111 48.1161 14.5491 47.9075 14.6533C47.7467 14.5203 47.705 14.3548 47.7823 14.1569C47.4716 14.0763 47.4299 13.9522 47.657 13.7845C47.8175 13.9269 47.8592 13.8854 47.7823 13.6604C47.696 13.554 47.5917 13.4714 47.4692 13.4122C47.5352 13.609 47.4518 13.7746 47.2188 13.9086C43.13 8.48863 37.7036 5.22036 30.9397 4.10372C31.2039 3.91519 31.4752 3.8324 31.7537 3.85549C32.2894 4.18067 32.8529 4.30478 33.4442 4.22783C33.9535 4.41015 34.4753 4.53426 35.0095 4.60017C35.0613 4.54345 35.1239 4.50199 35.1973 4.47605C35.239 4.55884 35.2808 4.6415 35.3225 4.72428C35.4894 4.55884 35.6565 4.55884 35.8234 4.72428C35.9246 4.68605 36.0081 4.624 36.0739 4.53811C35.9542 4.11687 35.9125 3.68248 35.9486 3.23492C35.2808 3.23492 34.6129 3.23492 33.9451 3.23492C33.9451 2.9867 33.9451 2.73847 33.9451 2.49025C33.6333 2.28918 33.2994 2.10301 32.9433 1.93174C32.6119 1.87005 32.278 1.84933 31.9415 1.86968C31.9415 1.74557 31.9415 1.62146 31.9415 1.49734C31.691 1.49734 31.4406 1.49734 31.1901 1.49734C31.2503 1.10204 31.1669 0.750307 30.9397 0.442383C31.3945 0.45194 31.8537 0.493269 32.3172 0.566496C32.1764 0.5974 32.0512 0.659456 31.9415 0.752665C31.9832 0.793995 32.025 0.835449 32.0667 0.876778C32.4151 0.750679 32.7491 0.626566 33.0685 0.504439Z"
            fill="#33464F" />
        <path fill-rule="evenodd" clip-rule="evenodd"
            d="M22.9254 0.504762C23.4056 0.567315 23.4056 0.691428 22.9254 0.877101C22.9463 0.918431 22.9671 0.959885 22.988 1.00121C23.2776 0.810453 23.5907 0.748396 23.9272 0.815045C23.4898 0.95008 23.469 1.09492 23.8646 1.24944C24.205 1.13228 24.5598 1.09095 24.929 1.12533C24.8719 1.5735 24.9554 1.98717 25.1794 2.36646C24.9496 2.48163 24.9079 2.62635 25.0542 2.80085C25.979 2.82555 26.8972 2.90821 27.8091 3.04908C27.35 3.09748 27.3292 3.24232 27.7465 3.48347C28.4144 3.42129 29.1658 3.42129 30.0005 3.48347C30.3161 3.57122 30.6291 3.67461 30.9397 3.79376C30.7436 3.86922 30.5765 3.97273 30.4388 4.10404C25.7324 3.62645 21.266 4.43319 17.0399 6.52424C16.6759 6.72394 16.342 6.95144 16.0381 7.20686C15.4995 7.43238 14.9986 7.72193 14.5354 8.07565C14.1988 7.86156 14.2405 7.69612 14.6606 7.5792C14.8753 7.71684 14.9588 7.63406 14.9111 7.33098C15.0363 7.33098 15.1615 7.33098 15.2867 7.33098C15.2867 7.20686 15.2867 7.08275 15.2867 6.95864C15.5566 6.97452 15.807 6.91247 16.0381 6.77247C15.9546 6.73114 15.8712 6.68968 15.7876 6.64835C16.0495 6.44046 16.3208 6.37841 16.6016 6.46218C16.8492 6.08414 17.204 5.87724 17.666 5.84162C17.9206 5.59935 17.9623 5.33052 17.7912 5.03489C18.7975 5.00051 19.7993 4.91785 20.7966 4.78666C20.9395 4.69469 20.9395 4.59118 20.7966 4.47638C20.5157 4.35549 20.2236 4.31404 19.92 4.35226C19.92 4.06271 19.92 3.77303 19.92 3.48347C19.586 3.48347 19.2522 3.48347 18.9182 3.48347C18.9182 3.19392 18.9182 2.90424 18.9182 2.61468C18.4873 2.63938 18.07 2.57732 17.666 2.42851C17.7912 2.38718 17.9164 2.34573 18.0417 2.3044C17.7881 2.13859 17.5376 2.07653 17.2903 2.11823C18.6355 1.47384 20.0546 1.01871 21.5479 0.752988C21.986 0.57712 22.4452 0.494461 22.9254 0.504762Z"
            fill="#283B44" />
        <path fill-rule="evenodd" clip-rule="evenodd"
            d="M17.2902 2.11804C17.5376 2.07634 17.788 2.13839 18.0416 2.30421C17.9164 2.34554 17.7911 2.38699 17.6659 2.42832C18.0699 2.57713 18.4873 2.63919 18.9182 2.61449C18.9182 2.90405 18.9182 3.19373 18.9182 3.48328C19.2521 3.48328 19.586 3.48328 19.9199 3.48328C19.9199 3.77284 19.9199 4.06252 19.9199 4.35207C20.2235 4.31385 20.5156 4.3553 20.7965 4.47619C20.9394 4.59099 20.9394 4.6945 20.7965 4.78647C19.7992 4.91766 18.7974 5.00031 17.7911 5.03469C17.9622 5.33033 17.9205 5.59916 17.6659 5.84143C17.204 5.87705 16.8491 6.08395 16.6015 6.46199C16.3208 6.37822 16.0494 6.44027 15.7876 6.64816C15.8711 6.68949 15.9545 6.73095 16.038 6.77228C15.807 6.91227 15.5565 6.97433 15.2867 6.95845C15.2867 7.08256 15.2867 7.20667 15.2867 7.33078C15.1614 7.33078 15.0362 7.33078 14.911 7.33078C14.9587 7.63387 14.8752 7.71665 14.6606 7.57901C14.2404 7.69592 14.1987 7.86137 14.5353 8.07546C13.3571 8.86767 12.2719 9.77792 11.2795 10.8059C11.2055 10.7251 11.1221 10.6424 11.0291 10.5577C11.2615 10.2239 11.5536 9.95503 11.9056 9.75099C11.6052 9.66274 11.3131 9.68347 11.0291 9.81304C10.9874 9.77171 10.9455 9.73026 10.9038 9.68893C10.9618 8.90627 11.1497 8.86482 11.4674 9.56482C11.5255 8.86048 11.609 8.81915 11.7178 9.4407C11.8577 9.26086 11.9412 9.05397 11.9682 8.82014C12.0099 8.90292 12.0518 8.98558 12.0935 9.06837C12.1983 8.88133 12.3444 8.81927 12.5318 8.8822C12.343 8.98608 12.2804 9.13092 12.3439 9.31659C12.5683 9.01351 12.7562 8.6825 12.9074 8.32369C12.7952 8.0381 12.7744 7.74855 12.8448 7.4549C12.9193 7.89947 13.0864 7.94092 13.3457 7.57901C13.4062 7.46135 13.427 7.33724 13.4083 7.20667C13.2428 7.18557 13.0966 7.2269 12.97 7.33078C12.8865 7.04123 12.8865 6.75155 12.97 6.46199C13.0536 6.29655 13.137 6.29655 13.2205 6.46199C13.3511 6.02934 13.2676 5.657 12.97 5.34498C12.9096 5.46264 12.8888 5.58675 12.9074 5.71732C12.5763 5.67512 12.2842 5.7579 12.0309 5.96554C11.9084 5.90634 11.8041 5.82368 11.7178 5.71732C11.6761 5.8001 11.6343 5.88276 11.5926 5.96554C11.4228 5.85632 11.2349 5.81487 11.0291 5.84143C11.0304 6.31951 10.78 6.54701 10.2777 6.52405C9.98308 6.76744 9.71172 7.03626 9.46377 7.33078C9.40567 7.25706 9.38476 7.17428 9.40116 7.08256C10.1153 6.37449 10.8667 5.7126 11.6552 5.09675C12.8704 4.28778 14.1226 3.5431 15.4119 2.86272C16.0247 2.57962 16.6509 2.33139 17.2902 2.11804Z"
            fill="#22343D" />
        <path fill-rule="evenodd" clip-rule="evenodd"
            d="M11.2794 10.8067C10.5211 11.5168 9.8532 12.303 9.27579 13.1648C8.20049 14.561 7.28223 16.0503 6.52087 17.6329C6.2976 17.1579 6.10976 17.1992 5.95736 17.757C5.66747 17.3453 5.60486 16.9109 5.76953 16.4538C6.0588 16.3921 6.35094 16.3715 6.64609 16.3918C6.64609 15.7299 6.64609 15.0678 6.64609 14.4059C6.77783 14.3875 6.90305 14.4081 7.02176 14.468C6.90268 14.5571 6.88189 14.6605 6.95915 14.7783C7.10942 14.541 7.31817 14.3755 7.58527 14.2818C7.46781 13.7177 7.3635 13.1386 7.27221 12.5443C7.61808 12.3279 7.97284 12.2865 8.33661 12.4201C8.39885 12.0917 8.41976 11.7607 8.39922 11.4272C8.2323 11.4272 8.06525 11.4272 7.89833 11.4272C7.89833 11.0962 7.89833 10.7653 7.89833 10.4343C7.6445 10.4544 7.39405 10.4337 7.14699 10.3723C7.40933 10.3033 7.43024 10.2412 7.2096 10.1861C6.92522 10.2411 6.65398 10.4067 6.39565 10.6826C6.32227 10.6566 6.25965 10.6152 6.20781 10.5584C6.20781 10.8067 6.20781 11.0549 6.20781 11.3031C6.0742 11.3889 5.92806 11.4509 5.76953 11.4893C5.76277 11.7448 5.78368 12.0138 5.83214 12.296C5.24321 12.5548 4.72141 12.8858 4.26685 13.2889C4.55899 12.7925 4.85126 12.296 5.14341 11.7996C5.8369 10.7589 6.60903 9.76599 7.46005 8.82087C8.05599 8.16729 8.70289 7.58805 9.40101 7.08328C9.38461 7.175 9.40552 7.25779 9.46362 7.33151C9.71157 7.03699 9.98293 6.76816 10.2776 6.52478C10.7799 6.54774 11.0303 6.32024 11.0289 5.84215C11.2348 5.81559 11.4226 5.85705 11.5924 5.96627C11.6341 5.88348 11.676 5.80083 11.7176 5.71804C11.8039 5.82441 11.9082 5.90707 12.0307 5.96627C12.284 5.75863 12.5762 5.67584 12.9073 5.71804C12.8886 5.58748 12.9094 5.46336 12.9699 5.3457C13.2674 5.65772 13.3509 6.03006 13.2203 6.46272C13.1368 6.29728 13.0534 6.29728 12.9699 6.46272C12.8864 6.75228 12.8864 7.04195 12.9699 7.33151C13.0965 7.22763 13.2426 7.1863 13.4082 7.2074C13.4268 7.33796 13.406 7.46208 13.3456 7.57974C13.0862 7.94165 12.9192 7.9002 12.8447 7.45562C12.7743 7.74927 12.7951 8.03883 12.9073 8.32441C12.756 8.68322 12.5682 9.01423 12.3438 9.31732C12.2803 9.13164 12.3429 8.9868 12.5316 8.88292C12.3443 8.82 12.1981 8.88205 12.0933 9.06909C12.0516 8.98631 12.0098 8.90365 11.9681 8.82087C11.941 9.05469 11.8575 9.26159 11.7176 9.44143C11.6088 8.81987 11.5253 8.8612 11.4672 9.56554C11.1495 8.86555 10.9617 8.907 10.9037 9.68966C10.9454 9.73099 10.9872 9.77244 11.0289 9.81377C11.3129 9.6842 11.6051 9.66347 11.9055 9.75171C11.5535 9.95575 11.2613 10.2246 11.0289 10.5584C11.122 10.6431 11.2054 10.7259 11.2794 10.8067Z"
            fill="#1C2E37" />
        <path fill-rule="evenodd" clip-rule="evenodd"
            d="M37.2008 10.1859C39.6819 9.91691 41.1011 10.9925 41.4584 13.4128C41.4167 13.661 41.3749 13.9092 41.3332 14.1575C39.5598 13.2167 37.8067 12.2445 36.0738 11.2408C35.8534 11.121 35.8116 10.9762 35.9486 10.8064C36.379 10.5972 36.7965 10.3903 37.2008 10.1859Z"
            fill="#30444C" />
        <path fill-rule="evenodd" clip-rule="evenodd"
            d="M28.3099 11.1787C28.374 11.5954 28.5409 11.9677 28.8108 12.2957C28.7417 12.4823 28.7417 12.689 28.8108 12.9163C28.936 12.9163 29.0612 12.9163 29.1865 12.9163C29.1583 13.5056 29.2209 14.0848 29.3743 14.6539C30.4943 16.3826 31.9344 16.7137 33.6945 15.6468C34.0146 15.7369 34.265 15.6128 34.4458 15.2744C34.5192 15.3004 34.5818 15.3418 34.6337 15.3986C34.8459 15.114 34.9295 14.8243 34.8841 14.5298C35.0107 14.4259 35.1569 14.3845 35.3224 14.4056C35.3224 14.7367 35.3224 15.0675 35.3224 15.3986C35.5312 15.3986 35.7398 15.3986 35.9485 15.3986C35.9485 15.7296 35.9485 16.0604 35.9485 16.3915C36.2825 16.3915 36.6163 16.3915 36.9503 16.3915C36.9503 16.5984 36.9503 16.8051 36.9503 17.012C37.2843 17.012 37.6181 17.012 37.9521 17.012C37.9521 17.2602 37.9521 17.5085 37.9521 17.7567C38.2861 17.7567 38.6199 17.7567 38.9539 17.7567C38.9539 17.6326 38.9539 17.5085 38.9539 17.3844C39.2043 17.3844 39.4548 17.3844 39.7052 17.3844C39.7052 17.7154 39.7052 18.0463 39.7052 18.3773C39.4548 18.3773 39.2043 18.3773 38.9539 18.3773C38.9142 18.7585 38.9559 19.1309 39.0791 19.4943C39.7859 19.9091 39.7441 20.1573 38.9539 20.239C38.9792 20.5479 38.9166 20.8376 38.7661 21.1077C38.7244 21.0664 38.6825 21.025 38.6408 20.9836C38.5991 21.1491 38.5573 21.3146 38.5156 21.4801C38.0464 21.6108 37.9003 21.9417 38.0773 22.473C37.1993 23.6362 36.3227 24.7945 35.4476 25.9482C35.3521 25.8528 35.2269 25.7908 35.072 25.762C35.1555 25.7207 35.2389 25.6792 35.3224 25.6379C35.1651 25.5861 35.0816 25.4827 35.072 25.3276C35.1534 25.3653 35.2369 25.4066 35.3224 25.4517C35.4553 25.0642 35.6222 24.6919 35.8233 24.3347C35.8967 24.3606 35.9593 24.4021 36.0111 24.4588C36.0947 24.2934 36.1781 24.1278 36.2616 23.9623C36.4959 24.1073 36.6837 24.0453 36.8251 23.7762C36.5257 23.6904 36.5257 23.5663 36.8251 23.4038C36.6378 23.3409 36.4916 23.403 36.3868 23.59C36.2006 23.5087 36.0546 23.3846 35.9485 23.2177C36.2373 23.0142 36.4877 22.766 36.6999 22.473C36.5966 22.363 36.4713 22.3217 36.3242 22.3489C36.3242 22.0179 36.3242 21.687 36.3242 21.356C36.199 21.356 36.0737 21.356 35.9485 21.356C35.9485 21.2319 35.9485 21.1077 35.9485 20.9836C35.6146 20.9836 35.2807 20.9836 34.9467 20.9836C34.9467 21.1077 34.9467 21.2319 34.9467 21.356C34.2789 21.356 33.611 21.356 32.9432 21.356C32.9432 21.025 32.9432 20.6941 32.9432 20.3631C32.6092 20.3631 32.2753 20.3631 31.9414 20.3631C31.9414 20.239 31.9414 20.1148 31.9414 19.9907C31.6074 19.9907 31.2736 19.9907 30.9396 19.9907C30.9396 19.7838 30.9396 19.5771 30.9396 19.3702C30.6056 19.3702 30.2718 19.3702 29.9378 19.3702C29.9378 19.2461 29.9378 19.1219 29.9378 18.9978C29.6038 18.9978 29.27 18.9978 28.936 18.9978C28.8634 18.4629 28.8216 17.9251 28.8108 17.3844C28.5186 17.3844 28.2264 17.3844 27.9342 17.3844C27.9342 16.7225 27.9342 16.0604 27.9342 15.3986C27.2664 15.3986 26.5985 15.3986 25.9306 15.3986C25.9306 15.2744 25.9306 15.1503 25.9306 15.0262C25.546 14.9869 25.1703 15.0282 24.8036 15.1503C24.9782 15.2976 24.9573 15.3804 24.741 15.3986C24.6084 15.3824 24.5041 15.3204 24.428 15.2124C24.6929 15.067 24.7763 14.8809 24.6784 14.6539C24.4769 14.8261 24.2474 14.9503 23.9897 15.0262C23.7199 14.8096 23.4069 14.8096 23.0505 15.0262C22.965 14.9812 22.8814 14.9398 22.8 14.9021C23.3472 14.6171 23.9316 14.3896 24.5532 14.2195C25.4628 13.9534 26.3811 13.7259 27.3081 13.5369C27.4123 13.0832 27.5166 12.6282 27.6212 12.1716C27.7609 11.7675 27.9904 11.4366 28.3099 11.1787Z"
            fill="#22343E" />
        <path fill-rule="evenodd" clip-rule="evenodd"
            d="M31.1901 12.1719C31.4467 12.1974 31.4885 12.3008 31.3153 12.4822C31.5256 12.8914 31.8595 13.0155 32.3171 12.8545C32.4109 12.6393 32.4735 12.4118 32.5049 12.1719C33.2718 12.6244 33.5223 13.2864 33.2563 14.1577C32.2635 15.3579 31.3452 15.3165 30.5014 14.0336C30.4178 13.6612 30.4178 13.2889 30.5014 12.9166C30.6717 12.6034 30.9012 12.3552 31.1901 12.1719Z"
            fill="#22353D" />
        <path fill-rule="evenodd" clip-rule="evenodd"
            d="M38.0773 22.4729C37.9002 21.9416 38.0463 21.6107 38.5155 21.48C38.5572 21.3145 38.5991 21.149 38.6408 20.9835C38.6825 21.0249 38.7243 21.0663 38.766 21.1076C38.9165 20.8375 38.9791 20.5478 38.9538 20.2389C39.744 20.1572 39.7858 19.909 39.079 19.4942C38.9558 19.1308 38.9141 18.7584 38.9538 18.3772C39.2043 18.3772 39.4547 18.3772 39.7052 18.3772C39.7052 18.0462 39.7052 17.7153 39.7052 17.3843C39.4547 17.3843 39.2043 17.3843 38.9538 17.3843C38.9538 17.5084 38.9538 17.6325 38.9538 17.7566C38.6198 17.7566 38.286 17.7566 37.952 17.7566C37.952 17.5084 37.952 17.2601 37.952 17.0119C37.6181 17.0119 37.2842 17.0119 36.9502 17.0119C36.9502 16.805 36.9502 16.5983 36.9502 16.3914C36.6163 16.3914 36.2824 16.3914 35.9485 16.3914C35.9485 16.0603 35.9485 15.7295 35.9485 15.3985C35.7397 15.3985 35.5311 15.3985 35.3223 15.3985C35.3223 15.0674 35.3223 14.7366 35.3223 14.4055C35.1568 14.3845 35.0107 14.4258 34.8841 14.5297C34.9294 14.8242 34.8459 15.1139 34.6336 15.3985C34.5818 15.3417 34.5192 15.3003 34.4458 15.2743C34.2649 15.6127 34.0145 15.7368 33.6944 15.6467C34.9618 14.1103 34.8366 12.683 33.3188 11.3648C31.3977 10.5028 30.0202 11.0199 29.1864 12.9162C29.0612 12.9162 28.9359 12.9162 28.8107 12.9162C28.7416 12.6889 28.7416 12.4822 28.8107 12.2956C28.5409 11.9676 28.3739 11.5953 28.3098 11.1786C28.4859 10.8169 28.7363 10.5067 29.0612 10.2478C32.1797 8.58205 34.559 9.306 36.1989 12.4197C37.9064 13.2659 39.6178 14.114 41.3331 14.9641C42.3201 15.8542 42.4661 16.8677 41.7714 18.0048C40.6044 19.5538 39.3729 21.0431 38.0773 22.4729Z"
            fill="#283A43" />
        <path fill-rule="evenodd" clip-rule="evenodd"
            d="M35.0719 25.328C34.9501 25.0242 34.9084 24.6932 34.9467 24.3351C34.6127 24.3351 34.2789 24.3351 33.9449 24.3351C33.9449 24.4592 33.9449 24.5833 33.9449 24.7074C33.6109 24.7074 33.2771 24.7074 32.9431 24.7074C32.9431 24.3764 32.9431 24.0456 32.9431 23.7145C32.6091 23.7145 32.2753 23.7145 31.9413 23.7145C31.9413 23.5904 31.9413 23.4663 31.9413 23.3422C31.6073 23.3422 31.2735 23.3422 30.9395 23.3422C31.0204 23.9938 31.0204 24.6351 30.9395 25.266C31.0582 25.3259 31.1835 25.3465 31.3152 25.328C31.3544 25.7676 31.3126 26.1813 31.19 26.5691C31.1064 27.0243 31.023 27.4793 30.9395 27.9344C31.0882 26.5138 30.629 25.3347 29.5621 24.3972C29.1151 24.1561 28.6978 23.8873 28.3098 23.5904C28.4074 23.2892 28.5535 23.2892 28.7481 23.5904C28.7898 23.5491 28.8316 23.5076 28.8733 23.4663C28.9358 22.7642 28.9567 22.0609 28.9359 21.3564C28.2681 21.3564 27.6002 21.3564 26.9324 21.3564C26.9324 21.0254 26.9324 20.6945 26.9324 20.3635C26.5984 20.3635 26.2645 20.3635 25.9306 20.3635C25.9306 20.0325 25.9306 19.7016 25.9306 19.3706C25.5966 19.3706 25.2628 19.3706 24.9288 19.3706C24.9288 19.0396 24.9288 18.7087 24.9288 18.3777C24.261 18.3777 23.593 18.3777 22.9252 18.3777C22.9662 17.7517 22.9245 17.1311 22.8 16.516C22.2257 16.5386 21.5996 16.4973 20.9216 16.3919C20.9216 16.2678 20.9216 16.1437 20.9216 16.0195C21.0936 16.039 21.2606 16.0183 21.4225 15.9575C21.8116 15.6937 22.229 15.4661 22.6748 15.2749C22.7857 15.1725 22.8274 15.0484 22.8 14.9025C22.8814 14.9403 22.9649 14.9816 23.0504 15.0266C23.4068 14.8101 23.7199 14.8101 23.9896 15.0266C24.2473 14.9507 24.4769 14.8266 24.6783 14.6543C24.7763 14.8813 24.6929 15.0675 24.4279 15.2128C24.504 15.3208 24.6083 15.3828 24.7409 15.399C24.9572 15.3809 24.9781 15.2981 24.8036 15.1507C25.1702 15.0286 25.5459 14.9873 25.9306 15.0266C25.9306 15.1507 25.9306 15.2749 25.9306 15.399C26.5984 15.399 27.2663 15.399 27.9342 15.399C27.9342 16.0609 27.9342 16.7229 27.9342 17.3848C28.2263 17.3848 28.5186 17.3848 28.8107 17.3848C28.8215 17.9255 28.8633 18.4633 28.9359 18.9983C29.2699 18.9983 29.6038 18.9983 29.9377 18.9983C29.9377 19.1224 29.9377 19.2465 29.9377 19.3706C30.2717 19.3706 30.6055 19.3706 30.9395 19.3706C30.9395 19.5775 30.9395 19.7843 30.9395 19.9912C31.2735 19.9912 31.6073 19.9912 31.9413 19.9912C31.9413 20.1153 31.9413 20.2394 31.9413 20.3635C32.2753 20.3635 32.6091 20.3635 32.9431 20.3635C32.9431 20.6945 32.9431 21.0254 32.9431 21.3564C33.6109 21.3564 34.2789 21.3564 34.9467 21.3564C34.9467 21.2323 34.9467 21.1082 34.9467 20.9841C35.2806 20.9841 35.6145 20.9841 35.9485 20.9841C35.9485 21.1082 35.9485 21.2323 35.9485 21.3564C36.0737 21.3564 36.1989 21.3564 36.3241 21.3564C36.3241 21.6874 36.3241 22.0183 36.3241 22.3493C36.4713 22.3221 36.5965 22.3634 36.6998 22.4734C36.4877 22.7664 36.2372 23.0147 35.9485 23.2181C36.0545 23.385 36.2005 23.5091 36.3867 23.5904C36.4916 23.4034 36.6377 23.3413 36.825 23.4043C36.5256 23.5667 36.5256 23.6908 36.825 23.7766C36.6836 24.0457 36.4958 24.1077 36.2615 23.9628C36.178 24.1282 36.0946 24.2938 36.0111 24.4592C35.9592 24.4025 35.8966 24.361 35.8232 24.3351C35.6221 24.6923 35.4552 25.0646 35.3223 25.4521C35.2368 25.4071 35.1533 25.3657 35.0719 25.328Z"
            fill="#1E303A" />
        <path fill-rule="evenodd" clip-rule="evenodd"
            d="M52.979 15.8953C53.3059 16.5845 53.598 17.2878 53.8556 18.0053C54.4046 19.4071 54.7803 20.8551 54.9826 22.3492C54.8803 22.6557 54.8177 22.9865 54.7948 23.3421C54.7113 23.1767 54.6279 23.0111 54.5443 22.8457C54.5169 23.0241 54.4543 23.1896 54.3565 23.3421C54.2338 23.0212 54.1921 22.6902 54.2313 22.3492C53.985 22.3789 53.7553 22.3376 53.5425 22.2251C53.5499 21.2393 53.4038 20.2877 53.1043 19.3705C53.0023 19.6517 52.9397 19.9414 52.9164 20.2393C52.5069 19.8084 52.027 19.5188 51.4764 19.3705C51.4764 19.0395 51.4764 18.7086 51.4764 18.3776C51.1424 18.3776 50.8085 18.3776 50.4746 18.3776C50.4948 18.6292 50.4739 18.8774 50.412 19.1223C50.359 18.9416 50.2547 18.8795 50.0989 18.9361C50.255 19.1171 50.255 19.3032 50.0989 19.4946C50.1646 19.5805 50.2482 19.6426 50.3493 19.6808C50.2552 19.7641 50.2133 19.8675 50.2241 19.9911C49.4596 17.8551 48.4578 15.8278 47.2188 13.9095C47.4518 13.7755 47.5352 13.6099 47.4692 13.4131C47.5917 13.4723 47.696 13.5549 47.7823 13.6613C47.8591 13.8863 47.8174 13.9278 47.657 13.7854C47.4299 13.9531 47.4716 14.0772 47.7823 14.1578C47.705 14.3557 47.7467 14.5212 47.9075 14.6542C48.1161 14.55 48.137 14.612 47.9701 14.8404C48.2189 15.0041 48.365 15.2316 48.4084 15.523C48.4464 15.2821 48.5508 15.0753 48.7214 14.9024C48.6797 14.8197 48.6379 14.737 48.5962 14.6542C48.6395 14.5058 48.7021 14.5058 48.784 14.6542C48.8806 14.3204 48.9849 13.9895 49.0971 13.6613C49.6219 14.1749 50.2062 14.5887 50.8502 14.9024C50.9338 14.8197 51.0172 14.737 51.1007 14.6542C51.2676 15.0266 51.4347 15.3989 51.6016 15.7712C51.7968 15.8425 51.9846 15.9251 52.1651 16.0195C52.2423 16.1372 52.2216 16.2406 52.1025 16.3297C52.2213 16.4063 52.3256 16.3857 52.4155 16.2677C52.4572 16.0608 52.4991 15.854 52.5408 15.6471C52.5997 15.8638 52.6833 16.0707 52.7912 16.2677C52.8203 16.1142 52.8829 15.99 52.979 15.8953Z"
            fill="#2B3D47" />
        <path fill-rule="evenodd" clip-rule="evenodd"
            d="M54.9826 22.3486C55.2031 23.4533 55.3283 24.5703 55.3583 25.6996C55.4742 29.5196 54.8481 33.2016 53.4799 36.7457C53.4881 36.6913 53.4673 36.6499 53.4173 36.6216C53.2525 36.8045 53.1273 37.0114 53.0416 37.2421C53.0207 37.0352 52.9999 36.8285 52.979 36.6216C53.0722 36.0226 53.2392 35.4435 53.4799 34.884C53.4348 34.6456 53.3304 34.4387 53.1669 34.2634C53.0528 32.9416 52.9902 31.6178 52.979 30.2918C52.7286 30.2918 52.4781 30.2918 52.2277 30.2918C52.2669 29.9509 52.2252 29.6198 52.1025 29.2989C51.9866 29.4405 51.8822 29.4405 51.7894 29.2989C51.5665 29.8508 51.4204 30.4301 51.3511 31.0365C51.2966 30.338 51.2759 29.6346 51.2885 28.9266C51.2652 29.2413 51.2026 29.5309 51.1007 29.7953C51.2239 28.0594 51.2448 26.3218 51.1633 24.5826C51.0508 23.466 50.8213 22.3903 50.4745 21.3557C50.4431 20.8904 50.3597 20.4354 50.2241 19.9904C50.2133 19.8668 50.2552 19.7634 50.3493 19.6801C50.2481 19.6419 50.1646 19.5799 50.0989 19.494C50.255 19.3026 50.255 19.1164 50.0989 18.9355C50.2547 18.8789 50.359 18.9409 50.4119 19.1216C50.4739 18.8768 50.4948 18.6285 50.4745 18.377C50.8085 18.377 51.1424 18.377 51.4763 18.377C51.4763 18.708 51.4763 19.0388 51.4763 19.3699C52.0269 19.5182 52.5069 19.8077 52.9164 20.2386C52.9397 19.9408 53.0023 19.6511 53.1042 19.3699C53.4038 20.2871 53.5499 21.2386 53.5425 22.2245C53.7553 22.3369 53.9849 22.3782 54.2313 22.3486C54.1921 22.6895 54.2338 23.0205 54.3565 23.3415C54.4543 23.1889 54.5169 23.0235 54.5443 22.845C54.6278 23.0105 54.7112 23.176 54.7948 23.3415C54.8177 22.9859 54.8803 22.655 54.9826 22.3486Z"
            fill="#23353F" />
        <path fill-rule="evenodd" clip-rule="evenodd"
            d="M6.52098 17.6323C5.81747 19.269 5.31658 20.9653 5.0183 22.721C4.51828 25.6833 4.51828 28.662 5.0183 31.6571C4.94103 31.6709 4.87842 31.7122 4.83046 31.7812C4.61708 30.894 4.36663 30.108 4.07912 29.4231C3.95289 30.0487 3.89028 30.0074 3.89128 29.2989C3.55731 29.2989 3.22347 29.2989 2.88949 29.2989C2.88949 29.6299 2.88949 29.9608 2.88949 30.2918C2.34527 30.2712 1.80268 30.292 1.26159 30.3539C1.37867 30.6494 1.42037 30.9597 1.38681 31.2847C1.51204 31.2847 1.63726 31.2847 1.76248 31.2847C1.74207 30.9922 1.76286 30.7027 1.82509 30.416C1.80994 31.0536 1.83085 31.6742 1.88771 32.2777C1.76248 32.2777 1.63726 32.2777 1.51204 32.2777C1.37855 32.7856 1.42025 33.2614 1.63726 33.705C1.59518 33.8328 1.51166 33.8948 1.38681 33.8911C0.732017 31.5399 0.439871 29.1403 0.510246 26.6926C0.541302 23.7147 1.0422 20.8188 2.01293 18.0047C2.56754 16.3267 3.31889 14.7546 4.26695 13.2884C4.72152 12.8853 5.24332 12.5542 5.83225 12.2955C5.78379 12.0132 5.76288 11.7443 5.76964 11.4887C5.92817 11.4504 6.07431 11.3883 6.20792 11.3026C6.20792 11.0543 6.20792 10.8061 6.20792 10.5579C6.25976 10.6146 6.32237 10.6561 6.39576 10.682C6.65409 10.4061 6.92533 10.2405 7.20971 10.1855C7.43035 10.2407 7.40944 10.3027 7.1471 10.3717C7.39416 10.4332 7.64461 10.4539 7.89844 10.4338C7.89844 10.7648 7.89844 11.0957 7.89844 11.4267C8.06536 11.4267 8.23241 11.4267 8.39933 11.4267C8.41987 11.7602 8.39896 12.0912 8.33672 12.4196C7.97295 12.2859 7.61819 12.3274 7.27232 12.5437C7.36361 13.1381 7.46792 13.7172 7.58538 14.2813C7.31828 14.375 7.10953 14.5404 6.95926 14.7777C6.882 14.6599 6.90279 14.5566 7.02187 14.4674C6.90316 14.4075 6.77794 14.3869 6.6462 14.4054C6.6462 15.0673 6.6462 15.7293 6.6462 16.3912C6.35105 16.371 6.0589 16.3916 5.76964 16.4533C5.60497 16.9104 5.66758 17.3448 5.95747 17.7564C6.10987 17.1987 6.29771 17.1573 6.52098 17.6323Z"
            fill="#14262F" />
        <path fill-rule="evenodd" clip-rule="evenodd"
            d="M24.0523 28.3064C24.0598 28.3738 24.1015 28.4151 24.1775 28.4305C24.261 28.2651 24.3444 28.0995 24.4279 27.9341C24.5796 28.0301 24.5796 28.1335 24.4279 28.2443C24.5322 28.3477 24.6367 28.4512 24.741 28.5546C24.9606 28.3374 25.232 28.2546 25.5549 28.3064C25.5549 28.6374 25.5549 28.9683 25.5549 29.2993C25.9915 29.119 26.4507 29.0363 26.9324 29.0511C26.8662 29.529 26.9497 29.9634 27.1828 30.3543C27.0822 30.5741 26.936 30.7602 26.7446 30.9128C26.1649 30.7908 25.5597 30.7494 24.9288 30.7887C24.5702 31.0652 24.2154 31.0237 23.8644 30.6645C23.8227 30.7473 23.7809 30.83 23.7392 30.9128C23.5669 30.587 23.4209 30.587 23.3009 30.9128C21.9215 30.3672 20.544 29.8087 19.1685 29.2372C18.6241 29.1857 18.0815 29.2063 17.5406 29.2993C18.054 30.8965 18.6385 32.4685 19.2938 34.0156C25.013 34.0569 30.7314 34.0156 36.4494 33.8915C36.5338 33.6811 36.6173 33.4742 36.6998 33.2709C36.9512 33.1246 36.9929 33.1866 36.8251 33.4571C36.9438 33.517 37.069 33.5376 37.2007 33.5191C37.2424 33.2709 37.2843 33.0227 37.326 32.7745C37.4512 32.7745 37.5764 32.7745 37.7016 32.7745C37.6803 32.6104 37.722 32.4656 37.8269 32.3401C37.7433 32.2987 37.6599 32.2573 37.5764 32.216C37.7172 32.1851 37.8424 32.123 37.9521 32.0298C37.9383 31.8315 37.8966 31.6246 37.8269 31.4092C38.1787 31.329 38.4084 31.1223 38.5156 30.7887C38.6408 30.9128 38.766 31.0369 38.8913 31.161C38.8531 32.8133 38.8321 34.4681 38.8286 36.1255C38.5367 36.1253 38.2863 36.2287 38.0773 36.4358C38.3281 36.4774 38.5369 36.5808 38.7034 36.7461C38.5243 36.8748 38.3156 36.9576 38.0773 36.9943C31.0558 37.0351 24.0432 36.9938 17.0397 36.8702C16.7939 36.689 16.5644 36.4821 16.351 36.2496C15.9825 35.3139 15.586 34.4037 15.1614 33.5191C14.3235 31.4456 13.4886 29.377 12.6569 27.3135C12.3204 27.3339 11.9865 27.3131 11.6551 27.2514C10.6434 26.5338 10.393 25.603 10.9038 24.4589C11.1924 24.2741 11.4846 24.0879 11.7803 23.9004C13.4899 23.9184 15.2013 23.9598 16.9145 24.0245C18.5125 24.1722 20.0152 24.6273 21.4226 25.3897C22.5968 26.118 23.4733 27.0902 24.0523 28.3064Z"
            fill="#152630" />
        <path fill-rule="evenodd" clip-rule="evenodd"
            d="M22.8001 14.9023C22.8276 15.0482 22.7859 15.1723 22.6749 15.2747C22.2291 15.4659 21.8117 15.6936 21.4227 15.9573C21.2608 16.0181 21.0937 16.0388 20.9218 16.0194C20.9218 16.1435 20.9218 16.2676 20.9218 16.3917C21.5997 16.4971 22.2259 16.5384 22.8001 16.5158C22.9246 17.1309 22.9663 17.7515 22.9254 18.3775C23.5932 18.3775 24.2611 18.3775 24.9289 18.3775C24.9289 18.7085 24.9289 19.0394 24.9289 19.3704C25.2629 19.3704 25.5968 19.3704 25.9307 19.3704C25.9307 19.7014 25.9307 20.0323 25.9307 20.3633C26.2647 20.3633 26.5985 20.3633 26.9325 20.3633C26.9325 20.6943 26.9325 21.0252 26.9325 21.3562C27.6003 21.3562 28.2683 21.3562 28.9361 21.3562C28.9569 22.0607 28.936 22.764 28.8735 23.4661C28.8318 23.5075 28.79 23.5489 28.7483 23.5903C28.5537 23.289 28.4075 23.289 28.31 23.5903C28.7585 25.3038 29.6143 26.8344 30.8771 28.1824C30.9352 28.1087 30.9561 28.0259 30.9397 27.9342C31.0232 27.4791 31.1066 27.0241 31.1901 26.569C31.3053 26.8645 31.3053 27.154 31.1901 27.4378C31.3798 27.6918 31.4843 27.9815 31.5032 28.3065C31.538 27.8481 31.538 27.3929 31.5032 26.9413C31.625 27.1761 31.7085 27.4243 31.7536 27.686C31.7953 27.5619 31.8371 27.4378 31.8788 27.3136C32.1676 27.5998 32.4599 27.8895 32.7554 28.1824C32.8179 28.8431 32.8388 29.505 32.818 30.1682C32.2225 30.3081 31.5754 30.5563 30.8771 30.9129C30.8252 30.8562 30.7626 30.8147 30.6892 30.7888C30.0531 31.1868 29.3851 31.5177 28.6856 31.7817C28.2743 31.6017 27.9612 31.3122 27.7465 30.9129C27.4706 31.5991 26.9488 31.9301 26.1812 31.9058C25.1763 31.6755 24.2162 31.3445 23.301 30.9129C23.421 30.5871 23.567 30.5871 23.7393 30.9129C23.781 30.8301 23.8228 30.7475 23.8645 30.6647C24.2155 31.0239 24.5703 31.0653 24.9289 30.7888C25.5598 30.7496 26.165 30.7909 26.7447 30.9129C26.9361 30.7604 27.0823 30.5742 27.183 30.3544C26.9498 29.9636 26.8663 29.5292 26.9325 29.0512C26.4508 29.0365 25.9916 29.1191 25.5551 29.2994C25.5551 28.9684 25.5551 28.6376 25.5551 28.3065C25.2321 28.2548 24.9607 28.3376 24.7411 28.5548C24.6368 28.4514 24.5324 28.3479 24.428 28.2445C24.5797 28.1337 24.5797 28.0303 24.428 27.9342C24.3445 28.0996 24.2611 28.2652 24.1776 28.4307C24.1016 28.4153 24.0599 28.3739 24.0524 28.3065C24.1351 28.1037 24.1768 27.8762 24.1776 27.6239C23.9618 25.5078 22.8766 24.0184 20.9218 23.1559C18.7977 22.4879 16.6272 22.281 14.4102 22.5353C15.1966 20.9914 16.1983 19.6055 17.4155 18.3775C18.9789 16.878 20.7738 15.7196 22.8001 14.9023Z"
            fill="#182A33" />
        <path fill-rule="evenodd" clip-rule="evenodd"
            d="M43.9628 27.3131C43.7012 27.3574 43.4507 27.4401 43.2114 27.5613C43.0661 27.916 42.8991 28.247 42.7105 28.5542C42.6288 28.392 42.5452 28.2266 42.4601 28.0578C42.6117 27.8872 42.737 27.7011 42.8358 27.4993C42.7719 27.2726 42.6675 27.2519 42.5227 27.4372C42.4603 27.0671 42.4394 26.6948 42.4601 26.3202C41.9077 26.4244 41.4487 26.2796 41.0826 25.8858C40.9365 25.8651 40.7905 25.8445 40.6444 25.8237C40.1997 25.9717 39.7614 26.1371 39.3295 26.3202C38.8463 26.2944 38.3454 26.2738 37.8268 26.2581C37.9459 26.169 37.9667 26.0656 37.8894 25.9479C37.6702 25.8582 37.4823 25.7341 37.3259 25.5755C38.9621 24.959 40.6317 24.4005 42.3349 23.9C43.0255 23.6144 43.6933 23.6557 44.3384 24.0241C45.5844 25.2809 45.4592 26.3773 43.9628 27.3131Z"
            fill="#253741" />
        <path fill-rule="evenodd" clip-rule="evenodd"
            d="M35.0719 25.3276C35.0816 25.4827 35.1651 25.5861 35.3224 25.6379C35.2389 25.6792 35.1555 25.7207 35.0719 25.762C35.2269 25.7908 35.3521 25.8528 35.4476 25.9482C35.4551 26.0156 35.4968 26.0569 35.5728 26.0723C36.1515 25.881 36.7359 25.7156 37.326 25.5758C37.4824 25.7344 37.6702 25.8586 37.8895 25.9482C37.9667 26.066 37.946 26.1693 37.8269 26.2585C38.3454 26.2741 38.8463 26.2947 39.3296 26.3205C39.7614 26.1374 40.1997 25.972 40.6444 25.8241C40.7905 25.8448 40.9365 25.8654 41.0827 25.8861C41.4487 26.2799 41.9078 26.4248 42.4601 26.3205C42.4395 26.6951 42.4604 27.0674 42.5228 27.4375C42.6675 27.2522 42.7719 27.273 42.8358 27.4996C42.737 27.7014 42.6118 27.8876 42.4601 28.0581C42.5453 28.2269 42.6288 28.3923 42.7106 28.5545C41.6427 31.1275 40.5366 33.6926 39.3922 36.2495C39.2105 36.4933 38.9809 36.6587 38.7034 36.746C38.5369 36.5807 38.3281 36.4773 38.0773 36.4357C38.2863 36.2286 38.5368 36.1252 38.8287 36.1254C38.8322 34.468 38.8531 32.8132 38.8913 31.1609C38.766 31.0368 38.6408 30.9127 38.5156 30.7886C38.4084 31.1222 38.1787 31.329 37.8269 31.4091C37.8966 31.6245 37.9383 31.8314 37.9521 32.0297C37.8424 32.1229 37.7172 32.185 37.5764 32.2159C37.6599 32.2572 37.7433 32.2987 37.8269 32.34C37.7221 32.4655 37.6804 32.6103 37.7016 32.7744C37.5764 32.7744 37.4512 32.7744 37.326 32.7744C37.2843 33.0226 37.2425 33.2708 37.2008 33.5191C37.069 33.5376 36.9438 33.5169 36.8251 33.457C36.9929 33.1866 36.9512 33.1245 36.6999 33.2708C37.3504 31.8581 37.8931 30.4102 38.3278 28.9269C37.9387 28.9084 37.563 28.9704 37.2008 29.113C34.7297 29.9983 32.2669 30.9086 29.8126 31.8435C29.4123 31.9434 29.0367 31.9227 28.6855 31.7815C29.385 31.5175 30.053 31.1866 30.6891 30.7886C30.7625 30.8145 30.8251 30.856 30.877 30.9127C31.5753 30.5561 32.2224 30.3079 32.8179 30.168C32.8387 29.5047 32.8178 28.8429 32.7553 28.1822C32.4598 27.8893 32.1675 27.5996 31.8787 27.3134C31.837 27.4375 31.7952 27.5616 31.7535 27.6858C31.7084 27.4241 31.6249 27.1759 31.5031 26.9411C31.5379 27.3927 31.5379 27.8478 31.5031 28.3063C31.4842 27.9813 31.3797 27.6916 31.19 27.4375C31.3052 27.1538 31.3052 26.8642 31.19 26.5687C31.3126 26.1809 31.3544 25.7672 31.3152 25.3276C31.1835 25.3461 31.0583 25.3255 30.9396 25.2655C31.0205 24.6347 31.0205 23.9934 30.9396 23.3418C31.2735 23.3418 31.6074 23.3418 31.9414 23.3418C31.9414 23.4659 31.9414 23.59 31.9414 23.7141C32.2753 23.7141 32.6092 23.7141 32.9431 23.7141C32.9431 24.0451 32.9431 24.376 32.9431 24.707C33.2771 24.707 33.611 24.707 33.9449 24.707C33.9449 24.5829 33.9449 24.4588 33.9449 24.3347C34.2789 24.3347 34.6128 24.3347 34.9467 24.3347C34.9084 24.6928 34.9501 25.0238 35.0719 25.3276Z"
            fill="#1C2E37" />
        <path fill-rule="evenodd" clip-rule="evenodd"
            d="M5.01818 31.657C5.55276 34.1642 6.47103 36.5223 7.7731 38.7314C12.7383 46.5505 19.9179 50.2945 29.3116 49.9636C32.313 49.8053 35.1514 49.0812 37.8268 47.7917C39.2114 47.2454 40.5054 46.5422 41.7087 45.6817C41.8652 45.6913 41.9695 45.7741 42.0217 45.93C42.0603 45.8297 42.1229 45.7469 42.2096 45.6817C42.3074 45.8353 42.4326 45.9594 42.5853 46.0541C42.627 45.9713 42.6688 45.8886 42.7105 45.8059C42.7839 45.8318 42.8465 45.8732 42.8983 45.93C42.9217 46.7468 42.9843 47.5535 43.0862 48.3502C42.9924 48.5654 42.9297 48.7929 42.8983 49.0328C42.8497 49.148 42.7662 49.2308 42.6479 49.281C42.4238 49.1682 42.1942 49.1475 41.9591 49.219C42.2534 49.4338 42.4205 49.6613 42.46 49.9016C37.0479 53.0104 31.2042 54.3343 24.9287 53.8732C15.4686 52.621 8.37255 47.9047 3.64072 39.7243C2.69153 37.8533 1.94019 35.9088 1.3867 33.891C1.51155 33.8947 1.59507 33.8327 1.63715 33.7048C1.42013 33.2613 1.37843 32.7855 1.51192 32.2775C1.63715 32.2775 1.76237 32.2775 1.88759 32.2775C1.83074 31.6741 1.80983 31.0535 1.82498 30.4158C1.76274 30.7025 1.74196 30.9921 1.76237 31.2846C1.63715 31.2846 1.51192 31.2846 1.3867 31.2846C1.42026 30.9596 1.37856 30.6493 1.26147 30.3538C1.80257 30.2919 2.34516 30.2711 2.88938 30.2917C2.88938 29.9607 2.88938 29.6298 2.88938 29.2988C3.22335 29.2988 3.5572 29.2988 3.89117 29.2988C3.89017 30.0073 3.95278 30.0486 4.07901 29.4229C4.36652 30.1079 4.61697 30.8939 4.83035 31.7811C4.87831 31.7121 4.94092 31.6708 5.01818 31.657Z"
            fill="#102129" />
        <path fill-rule="evenodd" clip-rule="evenodd"
            d="M53.4797 36.7459C53.271 37.3251 53.0624 37.9042 52.8536 38.4835C52.0734 39.9887 51.1968 41.4367 50.2239 42.8274C49.9777 42.7337 49.9359 42.589 50.0987 42.393C49.98 42.3331 49.8548 42.3125 49.723 42.331C49.7417 42.4615 49.7209 42.5856 49.6604 42.7033C49.4568 42.6594 49.2273 42.6594 48.9717 42.7033C48.9499 43.1221 48.8873 43.5357 48.7839 43.9444C48.4943 44.0009 48.2439 44.125 48.0325 44.3168C47.91 43.9235 47.9727 43.5717 48.2204 43.2618C47.805 43.2 47.3876 43.1793 46.9681 43.1998C46.9681 42.8687 46.9681 42.5379 46.9681 42.2068C46.7177 42.2068 46.4672 42.2068 46.2168 42.2068C46.2069 42.0294 46.2486 41.8638 46.342 41.7104C46.2543 41.6748 46.1708 41.6334 46.0916 41.5863C47.159 40.1951 48.0772 38.7057 48.8465 37.1182C49.9671 34.7845 50.7184 32.3437 51.1005 29.7955C51.2024 29.5311 51.265 29.2415 51.2883 28.9268C51.2757 29.6348 51.2965 30.3382 51.3509 31.0367C51.4202 30.4303 51.5663 29.851 51.7892 29.2991C51.882 29.4407 51.9865 29.4407 52.1023 29.2991C52.225 29.6201 52.2667 29.9511 52.2275 30.292C52.478 30.292 52.7284 30.292 52.9789 30.292C52.99 31.618 53.0526 32.9418 53.1667 34.2636C53.3302 34.4389 53.4347 34.6458 53.4797 34.8842C53.2391 35.4437 53.072 36.0228 52.9789 36.6218C52.9998 36.8287 53.0206 37.0354 53.0415 37.2423C53.1271 37.0116 53.2523 36.8047 53.4171 36.6218C53.4671 36.6501 53.4879 36.6915 53.4797 36.7459Z"
            fill="#1A2C36" />
        <path fill-rule="evenodd" clip-rule="evenodd"
            d="M23.8018 40.2207C26.4933 40.3445 29.2064 40.3859 31.9413 40.3448C29.7087 40.4481 27.4547 40.5101 25.1792 40.531C25.7972 40.7509 26.4233 40.7715 27.0576 40.5931C27.2198 40.6673 27.3867 40.7293 27.5585 40.7792C27.475 40.8205 27.3916 40.862 27.308 40.9033C27.8506 40.9447 28.3933 40.9861 28.9359 41.0274C27.7679 41.1101 26.5991 41.1722 25.4297 41.2136C25.4297 41.5446 25.4297 41.8755 25.4297 42.2065C24.4349 42.3273 24.4349 42.4514 25.4297 42.5789C25.1596 42.6137 24.951 42.7999 24.8036 43.1374C26.9956 43.1582 29.1661 43.2203 31.3152 43.3235C28.8524 43.3235 26.3898 43.3235 23.927 43.3235C23.8951 43.6358 23.7906 43.9255 23.6139 44.1923C22.623 45.4857 21.3082 46.0028 19.6694 45.7437C17.9811 45.1654 17.0629 43.9863 16.9145 42.2065C16.8942 41.9549 16.9151 41.7067 16.9771 41.4618C17.2712 40.4058 17.8764 39.5784 18.7928 38.9796C20.774 38.2134 22.4437 38.6271 23.8018 40.2207Z"
            fill="#11232B" />
        <path fill-rule="evenodd" clip-rule="evenodd"
            d="M36.9502 38.9797C37.2046 39.2306 37.4968 39.4375 37.8268 39.6002C38.2002 40.0906 38.5133 40.6285 38.766 41.2137C38.8285 41.8743 38.8494 42.5362 38.8286 43.1995C37.9545 45.2055 36.4102 46.0536 34.1953 45.7438C33.0147 45.3387 32.1799 44.5733 31.6909 43.4477C31.6021 43.3355 31.4768 43.2942 31.3152 43.3236C29.1661 43.2203 26.9956 43.1583 24.8036 43.1374C24.9509 42.8 25.1596 42.6138 25.4297 42.5789C24.4349 42.4515 24.4349 42.3274 25.4297 42.2066C25.4297 41.8756 25.4297 41.5447 25.4297 41.2137C26.5991 41.1722 27.7679 41.1102 28.9359 41.0275C28.3933 40.9862 27.8506 40.9447 27.308 40.9034C27.3916 40.8621 27.475 40.8206 27.5585 40.7793C27.3867 40.7294 27.2197 40.6673 27.0576 40.5931C26.4233 40.7716 25.7972 40.751 25.1792 40.5311C27.4547 40.5102 29.7087 40.4482 31.9413 40.3449C32.1082 40.3449 32.1918 40.2621 32.1918 40.0967C33.4911 38.5958 35.0773 38.2234 36.9502 38.9797Z"
            fill="#152730" />
        <path fill-rule="evenodd" clip-rule="evenodd"
            d="M32.1917 40.0967C32.1917 40.2621 32.1082 40.3449 31.9413 40.3449C29.2064 40.386 26.4933 40.3445 23.8018 40.2208C26.6078 40.2608 29.4045 40.2194 32.1917 40.0967Z"
            fill="#5E6C75" />
        <path fill-rule="evenodd" clip-rule="evenodd"
            d="M46.0916 41.5859C46.1708 41.6331 46.2544 41.6744 46.342 41.7101C46.2486 41.8635 46.2069 42.029 46.2168 42.2065C46.4672 42.2065 46.7177 42.2065 46.9681 42.2065C46.9681 42.5375 46.9681 42.8684 46.9681 43.1994C47.3876 43.1789 47.805 43.1997 48.2204 43.2615C47.9727 43.5714 47.9101 43.9231 48.0325 44.3164C48.2439 44.1247 48.4944 44.0006 48.7839 43.9441C48.8873 43.5354 48.9499 43.1217 48.9717 42.703C49.2273 42.659 49.4568 42.659 49.6604 42.703C49.7209 42.5853 49.7417 42.4612 49.723 42.3306C49.8548 42.3121 49.98 42.3327 50.0987 42.3927C49.9359 42.5886 49.9778 42.7334 50.2239 42.8271C48.1573 45.6205 45.6528 47.9372 42.7105 49.7774C42.627 49.8187 42.5436 49.8602 42.4601 49.9015C42.4205 49.6612 42.2535 49.4337 41.9592 49.2189C42.1942 49.1474 42.4239 49.1681 42.6479 49.2809C42.7663 49.2307 42.8498 49.1479 42.8984 49.0327C42.9298 48.7928 42.9924 48.5653 43.0862 48.3501C42.9844 47.5534 42.9218 46.7467 42.8984 45.9299C42.8465 45.8732 42.7839 45.8317 42.7105 45.8058C42.6688 45.8886 42.627 45.9712 42.5853 46.054C42.4327 45.9593 42.3074 45.8352 42.2096 45.6817C42.123 45.7468 42.0604 45.8296 42.0218 45.9299C41.9696 45.774 41.8653 45.6912 41.7087 45.6817C42.9487 44.7843 44.0757 43.75 45.0898 42.5788C45.4688 42.2859 45.8028 41.9549 46.0916 41.5859Z"
            fill="#16282F" />
    </g>
    <defs>
        <clipPath id="clip0_287_879">
            <rect x="0.5" width="55" height="54" rx="27" fill="white" />
        </clipPath>
    </defs>
</svg>